# xmcd
#
# Track frame offsets: 
#        182
#        29335
#        45902
#        98182
#        140602
#        175427
#        189915
#        209792
#        331410
#
# Disc length: 4741 seconds
#
# Revision: 1
# Processed by: cddbd v1.4PL0 Copyright (c) Steve Scherf et al.
# Submitted via: ExactAudioCopy v0.90b4
#
DISCID=80128309
DTITLE=Jimi Hendrix - 51th Anniversary ( the story of life...) cd5: 19
DTITLE=69, the year of the studio work continues
DYEAR=1993
DGENRE=Blues
TTITLE0=Midnight lightning 2 (unk outtakes)
TTITLE1=Lower Alcatraz (unr track)
TTITLE2=There goes ezy rider/7 dollars in my pocket (unr studio improv
TTITLE2=)
TTITLE3=Heavy rider jam (unr live studio jam)
TTITLE4=Easy blues (unr live studio improv w/ friends)
TTITLE5=Gypsy boy (unr studio outtake)
TTITLE6=Peace in Mississipi (unr studio outtake)
TTITLE7=Bluesiana jam (march 69 unr private tape)
TTITLE8=BB King slow instrumental jam (live at Generation, 5-18-69 NY)
EXTD=ID3G: 0\nJmh 005,6/8\nMade in Italy by Future Disk (this appears
EXTD=to be an Italian bootleg)
EXTT0=
EXTT1=
EXTT2=
EXTT3=
EXTT4=
EXTT5=
EXTT6=
EXTT7=
EXTT8=
PLAYORDER=
